<svg width="20" height="20" viewBox="0 0 20 20" fill="none" xmlns="http://www.w3.org/2000/svg">
<path d="M5.29167 12.7916L3.54167 10.9999C4.36111 10.1805 5.32306 9.53131 6.4275 9.05242C7.53194 8.57353 8.72278 8.33381 10 8.33325C11.2778 8.33325 12.4689 8.57631 13.5733 9.06242C14.6778 9.54853 15.6394 10.2083 16.4583 11.0416L14.7083 12.7916C14.0972 12.1805 13.3889 11.7013 12.5833 11.3541C11.7778 11.0069 10.9167 10.8333 10 10.8333C9.08333 10.8333 8.22222 11.0069 7.41667 11.3541C6.61111 11.7013 5.90278 12.1805 5.29167 12.7916ZM1.75 9.24992L0 7.49992C1.27778 6.19436 2.77083 5.17353 4.47917 4.43742C6.1875 3.70131 8.02778 3.33325 10 3.33325C11.9722 3.33325 13.8125 3.70131 15.5208 4.43742C17.2292 5.17353 18.7222 6.19436 20 7.49992L18.25 9.24992C17.1806 8.18047 15.9408 7.34353 14.5308 6.73909C13.1208 6.13464 11.6106 5.8327 10 5.83325C8.38889 5.83325 6.87833 6.13547 5.46833 6.73992C4.05833 7.34436 2.81889 8.18103 1.75 9.24992ZM10 17.4999L12.9375 14.5416C12.5625 14.1666 12.125 13.8713 11.625 13.6558C11.125 13.4402 10.5833 13.3327 10 13.3333C9.41667 13.3333 8.875 13.441 8.375 13.6566C7.875 13.8721 7.4375 14.1671 7.0625 14.5416L10 17.4999Z" fill="black"/>
</svg>
