<svg width="20" height="20" viewBox="0 0 20 20" fill="none" xmlns="http://www.w3.org/2000/svg">
<g clip-path="url(#clip0_54_9)">
<path d="M5.49167 0.549953C7.44167 -0.95838 9.55833 0.883287 10.0333 3.74995C10.3917 3.74995 10.7417 3.84995 11.0583 4.03329C11.4917 3.53329 11.875 2.84995 11.725 2.08329C11.375 0.29162 13.3833 -1.15838 15.2917 1.31662C16.8 3.26662 14.9583 5.38329 12.0833 5.85829C12.0833 6.21662 11.9917 6.57495 11.8 6.89162C12.3 7.31662 12.9833 7.69995 13.75 7.54995C15.525 7.19995 16.9833 9.19995 14.5083 11.1166C12.5583 12.625 10.4417 10.7833 9.96667 7.91662C9.60833 7.91662 9.25833 7.80829 8.95 7.62495C8.51667 8.12495 8.125 8.81662 8.275 9.58329C8.625 11.3666 6.61667 12.825 4.70833 10.35C3.19167 8.39162 5.04167 6.27495 7.91667 5.80829C7.91667 5.44995 8.025 5.09995 8.20833 4.78329C7.70833 4.35829 7.025 3.96662 6.25 4.11662C4.475 4.46662 3.01667 2.46662 5.49167 0.549953ZM4.16667 13.3333H5.83333C6.27536 13.3333 6.69928 13.5089 7.01184 13.8214C7.3244 14.134 7.5 14.5579 7.5 15V20H5.83333V18.3333H4.16667V20H2.5V15C2.5 14.5579 2.67559 14.134 2.98816 13.8214C3.30072 13.5089 3.72464 13.3333 4.16667 13.3333ZM4.16667 15V16.6666H5.83333V15H4.16667ZM10.775 13.3333H12.5L10.0583 20H8.33333L10.775 13.3333ZM15 13.3333H17.5V15H15V18.3333H17.5V20H15C14.558 20 14.134 19.8244 13.8215 19.5118C13.5089 19.1992 13.3333 18.7753 13.3333 18.3333V15C13.3333 14.5579 13.5089 14.134 13.8215 13.8214C14.134 13.5089 14.558 13.3333 15 13.3333Z" fill="black"/>
</g>
<defs>
<clipPath id="clip0_54_9">
<rect width="20" height="20" fill="white"/>
</clipPath>
</defs>
</svg>
