<svg width="20" height="20" viewBox="0 0 20 20" fill="none" xmlns="http://www.w3.org/2000/svg">
<g clip-path="url(#clip0_54_23)">
<path d="M15.0502 19.1666H16.4335C17.1335 19.1666 17.7085 18.6249 17.7918 17.9416L19.1668 4.20825H15.0002V0.833252H13.3585V4.20825H9.21683L9.46683 6.15825C10.8918 6.54992 12.2252 7.25825 13.0252 8.04159C14.2252 9.22492 15.0502 10.4499 15.0502 12.4499V19.1666ZM0.833496 18.3333V17.4999H13.3585V18.3333C13.3585 18.7833 12.9835 19.1666 12.5002 19.1666H1.66683C1.2085 19.1666 0.833496 18.7833 0.833496 18.3333ZM13.3585 12.4999C13.3585 5.83325 0.833496 5.83325 0.833496 12.4999H13.3585ZM0.833496 14.1666H13.3335V15.8333H0.833496V14.1666Z" fill="black"/>
</g>
<defs>
<clipPath id="clip0_54_23">
<rect width="20" height="20" fill="white"/>
</clipPath>
</defs>
</svg>
