<svg width="20" height="20" viewBox="0 0 20 20" fill="none" xmlns="http://www.w3.org/2000/svg">
<path d="M2.50016 1.66675H17.5002C17.9422 1.66675 18.3661 1.84234 18.6787 2.1549C18.9912 2.46746 19.1668 2.89139 19.1668 3.33341V16.6667C19.1668 17.1088 18.9912 17.5327 18.6787 17.8453C18.3661 18.1578 17.9422 18.3334 17.5002 18.3334H2.50016C2.05814 18.3334 1.63421 18.1578 1.32165 17.8453C1.00909 17.5327 0.833496 17.1088 0.833496 16.6667V3.33341C0.833496 2.89139 1.00909 2.46746 1.32165 2.1549C1.63421 1.84234 2.05814 1.66675 2.50016 1.66675ZM10.8335 3.33341V16.6667H17.5002V3.33341H10.8335ZM2.50016 3.33341V16.6667H9.16683V3.33341H2.50016ZM4.16683 10.8334H5.8335V14.1667H4.16683V10.8334ZM4.16683 5.00008H7.50016V6.25008H4.16683V5.00008ZM4.16683 7.50008H7.50016V8.75008H4.16683V7.50008ZM12.5002 10.8334H14.1668V14.1667H12.5002V10.8334ZM12.5002 5.00008H15.8335V6.25008H12.5002V5.00008ZM12.5002 7.50008H15.8335V8.75008H12.5002V7.50008Z" fill="black"/>
</svg>
