<svg width="21" height="20" viewBox="0 0 21 20" fill="none" xmlns="http://www.w3.org/2000/svg">
<path d="M6.15966 0.000779557C5.35407 -0.00833487 4.55467 0.142465 3.80776 0.444447C3.06084 0.746428 2.38127 1.19359 1.80837 1.76004C1.23548 2.32649 0.780659 3.00096 0.470246 3.74441C0.159834 4.48786 0 5.2855 0 6.09115C0 6.8968 0.159834 7.69444 0.470246 8.43789C0.780659 9.18133 1.23548 9.85581 1.80837 10.4223C2.38127 10.9887 3.06084 11.4359 3.80776 11.7379C4.55467 12.0398 5.35407 12.1906 6.15966 12.1815C7.77503 12.1815 9.32424 11.5398 10.4665 10.3976C11.6087 9.25534 12.2504 7.70613 12.2504 6.09076C12.2504 4.47539 11.6087 2.92618 10.4665 1.78394C9.32424 0.641703 7.77503 0.000779591 6.15966 0.000779557ZM4.21075 2.11886C4.47652 2.11835 4.73977 2.17033 4.9854 2.27182C5.23102 2.37331 5.45419 2.52232 5.64208 2.71028C5.82997 2.89824 5.97889 3.12147 6.08028 3.36713C6.18168 3.6128 6.23356 3.87607 6.23294 4.14184C6.23366 4.4076 6.18185 4.67088 6.08048 4.91655C5.97911 5.16222 5.83018 5.38543 5.64226 5.57336C5.45434 5.76128 5.23113 5.9102 4.98546 6.01157C4.73979 6.11294 4.47651 6.16476 4.21075 6.16404C3.94499 6.16476 3.6817 6.11294 3.43603 6.01157C3.19036 5.9102 2.96715 5.76128 2.77923 5.57336C2.59131 5.38543 2.44238 5.16222 2.34101 4.91655C2.23964 4.67088 2.18783 4.4076 2.18855 4.14184C2.18804 3.87614 2.23999 3.61295 2.34143 3.36737C2.44288 3.1218 2.59181 2.89867 2.77969 2.71079C2.96757 2.52291 3.1907 2.37397 3.43628 2.27253C3.68185 2.17108 3.94504 2.11835 4.21075 2.11886ZM12.8593 8.91591C12.6454 9.41591 12.3755 9.89006 12.0548 10.3293L18.1455 16.4192C18.2736 16.5491 18.3454 16.7241 18.3454 16.9065C18.3454 17.0888 18.2736 17.2639 18.1455 17.3937C18.0155 17.5214 17.8405 17.5929 17.6583 17.5929C17.476 17.5929 17.3011 17.5214 17.1711 17.3937L11.1536 11.3521C10.3936 12.072 9.48824 12.6206 8.49837 12.9611V14.033C8.49837 14.376 8.78759 14.666 9.13215 14.666H10.8371V16.3717C10.8371 16.7147 11.1263 17.0047 11.4709 17.0047H13.1758V18.7104C13.1758 19.0534 13.4658 19.3434 13.8096 19.3434H15.5386L15.9775 19.7823C16.2441 20.0481 18.9149 20.1814 19.583 19.5141C20.2511 18.8453 20.1163 16.1745 19.8504 15.9086L12.8593 8.91669V8.91591Z" fill="black"/>
</svg>
