<svg width="30" height="29" viewBox="0 0 30 29" fill="none" xmlns="http://www.w3.org/2000/svg">
<g clip-path="url(#clip0_6_54)">
<path d="M8.17292 18.5479L5.63542 15.95C6.82361 14.7618 8.21843 13.8205 9.81988 13.1261C11.4213 12.4317 13.148 12.0841 15 12.0833C16.8528 12.0833 18.5799 12.4357 20.1813 13.1406C21.7828 13.8455 23.1772 14.8021 24.3646 16.0104L21.8271 18.5479C20.941 17.6618 19.9139 16.967 18.7458 16.4635C17.5778 15.96 16.3292 15.7083 15 15.7083C13.6708 15.7083 12.4222 15.96 11.2542 16.4635C10.0861 16.967 9.05903 17.6618 8.17292 18.5479ZM3.0375 13.4125L0.5 10.875C2.35278 8.98192 4.51771 7.50172 6.99479 6.43435C9.47188 5.36699 12.1403 4.83331 15 4.83331C17.8597 4.83331 20.5281 5.36699 23.0052 6.43435C25.4823 7.50172 27.6472 8.98192 29.5 10.875L26.9625 13.4125C25.4118 11.8618 23.6142 10.6482 21.5697 9.77177C19.5252 8.89533 17.3353 8.45751 15 8.45831C12.6639 8.45831 10.4736 8.89654 8.42908 9.77298C6.38458 10.6494 4.58739 11.8626 3.0375 13.4125ZM15 25.375L19.2594 21.0854C18.7156 20.5416 18.0813 20.1135 17.3563 19.8009C16.6313 19.4884 15.8458 19.3325 15 19.3333C14.1542 19.3333 13.3688 19.4896 12.6438 19.8021C11.9188 20.1147 11.2844 20.5425 10.7406 21.0854L15 25.375Z" fill="black"/>
</g>
<defs>
<clipPath id="clip0_6_54">
<rect width="29" height="29" fill="white" transform="translate(0.5)"/>
</clipPath>
</defs>
</svg>
