<svg width="30" height="29" viewBox="0 0 30 29" fill="none" xmlns="http://www.w3.org/2000/svg">
<g clip-path="url(#clip0_6_46)">
<path d="M8.46292 0.797493C11.2904 -1.38959 14.3596 1.28083 15.0483 5.43749C15.5679 5.43749 16.0754 5.58249 16.5346 5.84833C17.1629 5.12333 17.7188 4.13249 17.5013 3.02083C16.9938 0.42291 19.9058 -1.67959 22.6729 1.90916C24.86 4.73666 22.1896 7.80583 18.0208 8.49458C18.0208 9.01416 17.8879 9.53374 17.61 9.99291C18.335 10.6092 19.3258 11.165 20.4375 10.9475C23.0113 10.44 25.1258 13.34 21.5371 16.1192C18.7096 18.3062 15.6404 15.6358 14.9517 11.4792C14.4321 11.4792 13.9246 11.3221 13.4775 11.0562C12.8492 11.7812 12.2813 12.7842 12.4988 13.8958C13.0063 16.4817 10.0942 18.5962 7.32708 15.0075C5.12792 12.1679 7.81042 9.09874 11.9792 8.42208C11.9792 7.90249 12.1363 7.39499 12.4021 6.93583C11.6771 6.31958 10.6863 5.75166 9.5625 5.96916C6.98875 6.47666 4.87417 3.57666 8.46292 0.797493ZM6.54167 19.3333H8.95833C9.59927 19.3333 10.214 19.5879 10.6672 20.0412C11.1204 20.4944 11.375 21.1091 11.375 21.75V29H8.95833V26.5833H6.54167V29H4.125V21.75C4.125 21.1091 4.37961 20.4944 4.83283 20.0412C5.28604 19.5879 5.90073 19.3333 6.54167 19.3333ZM6.54167 21.75V24.1667H8.95833V21.75H6.54167ZM16.1238 19.3333H18.625L15.0846 29H12.5833L16.1238 19.3333ZM22.25 19.3333H25.875V21.75H22.25V26.5833H25.875V29H22.25C21.6091 29 20.9944 28.7454 20.5412 28.2922C20.0879 27.839 19.8333 27.2243 19.8333 26.5833V21.75C19.8333 21.1091 20.0879 20.4944 20.5412 20.0412C20.9944 19.5879 21.6091 19.3333 22.25 19.3333Z" fill="black"/>
</g>
<defs>
<clipPath id="clip0_6_46">
<rect width="29" height="29" fill="white" transform="translate(0.5)"/>
</clipPath>
</defs>
</svg>
