<svg width="29" height="29" viewBox="0 0 29 29" fill="none" xmlns="http://www.w3.org/2000/svg">
<path d="M21.8224 27.7916H23.8283C24.8433 27.7916 25.677 27.0062 25.7978 26.0154L27.7916 6.10206H21.7499V1.20831H19.3695V6.10206H13.3641L13.7266 8.92956C15.7928 9.49748 17.7262 10.5246 18.8862 11.6604C20.6262 13.3762 21.8224 15.1525 21.8224 18.0525V27.7916ZM1.20825 26.5833V25.375H19.3695V26.5833C19.3695 27.2358 18.8258 27.7916 18.1249 27.7916H2.41659C1.752 27.7916 1.20825 27.2358 1.20825 26.5833ZM19.3695 18.125C19.3695 8.45831 1.20825 8.45831 1.20825 18.125H19.3695ZM1.20825 20.5416H19.3333V22.9583H1.20825V20.5416Z" fill="black"/>
</svg>
