<svg width="29" height="29" viewBox="0 0 29 29" fill="none" xmlns="http://www.w3.org/2000/svg">
<path d="M3.62492 2.41669H25.3749C26.0159 2.41669 26.6305 2.6713 27.0838 3.12451C27.537 3.57773 27.7916 4.19241 27.7916 4.83335V24.1667C27.7916 24.8076 27.537 25.4223 27.0838 25.8755C26.6305 26.3287 26.0159 26.5834 25.3749 26.5834H3.62492C2.98398 26.5834 2.36929 26.3287 1.91608 25.8755C1.46286 25.4223 1.20825 24.8076 1.20825 24.1667V4.83335C1.20825 4.19241 1.46286 3.57773 1.91608 3.12451C2.36929 2.6713 2.98398 2.41669 3.62492 2.41669ZM15.7083 4.83335V24.1667H25.3749V4.83335H15.7083ZM3.62492 4.83335V24.1667H13.2916V4.83335H3.62492ZM6.04159 15.7084H8.45825V20.5417H6.04159V15.7084ZM6.04159 7.25002H10.8749V9.06252H6.04159V7.25002ZM6.04159 10.875H10.8749V12.6875H6.04159V10.875ZM18.1249 15.7084H20.5416V20.5417H18.1249V15.7084ZM18.1249 7.25002H22.9583V9.06252H18.1249V7.25002ZM18.1249 10.875H22.9583V12.6875H18.1249V10.875Z" fill="black"/>
</svg>
