<svg width="31" height="29" viewBox="0 0 31 29" fill="none" xmlns="http://www.w3.org/2000/svg">
<path d="M9.88171 0.00113036C8.71359 -0.0120856 7.55446 0.206574 6.47144 0.644448C5.38842 1.08232 4.40303 1.73071 3.57234 2.55206C2.74164 3.3734 2.08215 4.3514 1.63205 5.42939C1.18195 6.50739 0.950195 7.66398 0.950195 8.83217C0.950195 10.0004 1.18195 11.1569 1.63205 12.2349C2.08215 13.3129 2.74164 14.2909 3.57234 15.1123C4.40303 15.9336 5.38842 16.582 6.47144 17.0199C7.55446 17.4578 8.71359 17.6764 9.88171 17.6632C12.224 17.6632 14.4703 16.7327 16.1266 15.0765C17.7828 13.4202 18.7133 11.1739 18.7133 8.8316C18.7133 6.48931 17.7828 4.24296 16.1266 2.58672C14.4703 0.930469 12.224 0.00113041 9.88171 0.00113036ZM7.05578 3.07235C7.44114 3.07161 7.82286 3.14698 8.17902 3.29414C8.53518 3.44131 8.85877 3.65736 9.13121 3.92991C9.40365 4.20245 9.61958 4.52613 9.76661 4.88234C9.91363 5.23856 9.98886 5.62031 9.98796 6.00567C9.98901 6.39102 9.91388 6.77278 9.76689 7.129C9.6199 7.48522 9.40396 7.80888 9.13147 8.08137C8.85899 8.35385 8.53533 8.5698 8.17911 8.71678C7.82289 8.86377 7.44113 8.9389 7.05578 8.93786C6.67042 8.9389 6.28866 8.86377 5.93244 8.71678C5.57622 8.5698 5.25257 8.35385 4.98008 8.08137C4.70759 7.80888 4.49165 7.48522 4.34466 7.129C4.19768 6.77278 4.12255 6.39102 4.12359 6.00567C4.12285 5.6204 4.19818 5.23878 4.34527 4.88269C4.49237 4.5266 4.70832 4.20307 4.98075 3.93064C5.25317 3.65821 5.57671 3.44226 5.9328 3.29517C6.28888 3.14807 6.67051 3.07161 7.05578 3.07235ZM19.5961 12.9281C19.286 13.6531 18.8946 14.3406 18.4296 14.9774L27.2612 23.8079C27.4469 23.9962 27.551 24.25 27.551 24.5144C27.551 24.7788 27.4469 25.0326 27.2612 25.2209C27.0726 25.406 26.819 25.5098 26.5547 25.5098C26.2904 25.5098 26.0368 25.406 25.8482 25.2209L17.1229 16.4605C16.021 17.5044 14.7081 18.2999 13.2728 18.7936V20.3478C13.2728 20.8452 13.6922 21.2657 14.1918 21.2657H16.6639V23.739C16.6639 24.2363 17.0833 24.6568 17.5829 24.6568H20.0551V27.1301C20.0551 27.6274 20.4756 28.0479 20.9741 28.0479H23.4812L24.1176 28.6843C24.5042 29.0698 28.3769 29.2631 29.3456 28.2955C30.3143 27.3256 30.1188 23.453 29.7333 23.0675L19.5961 12.9292V12.9281Z" fill="black"/>
</svg>
